<svg xmlns="http://www.w3.org/2000/svg" width="109" viewBox="0 0 160 35.1" fill="#6BCB77"><g class="nav-main-logo-full"><path class="nav-main-logo-v" d="M17.1 35.1c-2.5 0-4.8-1.6-5.7-4L0 0h9.4l7.8 23.4L25 0h9.3L22.8 31.1c-.9 2.4-3.2 4-5.7 4z"/><g class="nav-main-logo-rest"><path d="M45.7 34.9c-8.2 0-14.2-5.8-14.2-13.9s6-13.9 14.3-13.9C54 7.2 60 13 60 21s-6 13.9-14.3 13.9zm0-20.2c-3.4 0-5.8 2.6-5.8 6.3 0 3.7 2.4 6.3 5.8 6.3s5.9-2.6 5.9-6.3-2.5-6.3-5.9-6.3zM64 11.8h8.3v22.5H64z"/><ellipse cx="68.1" cy="4.5" rx="4.8" ry="4.5"/><path d="M90.6 34.9c-4.1 0-7.6-1.4-10.2-4-2.5-2.5-3.8-6-3.8-9.8 0-3.8 1.3-7.3 3.8-9.9 2.6-2.6 6.1-4 10.2-4 7.2 0 12.6 4.4 13.4 11v.4h-8.4l-.1-.3c-.7-2.2-2.6-3.5-4.9-3.5-3.3 0-5.6 2.6-5.6 6.3s2.3 6.3 5.7 6.3c2.3 0 4.2-1.3 4.8-3.2l.1-.3h8.4l-.1.4c-.9 6.3-6.2 10.6-13.3 10.6zM148.3 34.9c-7.2 0-11.2-3.1-11.4-8.8h7.6c.2 1.5 1.5 2.3 3.8 2.3.8 0 3.6-.1 3.6-2 0-1.4-1.8-1.7-4.6-2.2-4.2-.6-9.9-1.4-9.9-8.5 0-2.3 1-4.5 2.8-6 2-1.7 4.8-2.5 8.1-2.5 6.4 0 10.6 3.2 10.9 8.5H152c-.3-1.4-1.6-2.2-3.6-2.2s-3.4.8-3.4 1.9c0 1.2 1.7 1.5 4.5 1.8 2.3.3 4.8.6 6.9 1.8 2.5 1.4 3.6 3.7 3.6 7 0 2.6-1.1 4.9-3.1 6.4-2 1.6-5 2.5-8.6 2.5zM120.6 34.9c-3.7 0-7.1-1.4-9.6-3.9s-3.8-6-3.8-9.8c0-8.3 5.6-14 13.6-14 4.1 0 7.5 1.4 9.9 4.1 2.2 2.5 3.4 5.9 3.4 9.6v2.6h-18.9v.2c.5 2.8 2.7 4.6 5.7 4.6 2.2 0 4-.8 5-2.3h7.8c-1.4 5.6-6.3 8.9-13.1 8.9zm.1-21.2c-2.9 0-4.8 1.9-5.4 3.8l-.1.2h10.9l-.1-.2c-.5-2.3-2.6-3.8-5.3-3.8z"/></g></g></svg>