<svg id="Layer_1" data-name="Layer 1" xmlns="http://www.w3.org/2000/svg" viewBox="0 0 48 48"><defs><style>.cls-1{fill:#4db1ff;}.cls-2{fill:#1171bb;}.cls-3{fill:#fff;}</style></defs><g id="Auditions"><path class="cls-1" d="M37.02979,44H10.97021a2,2,0,0,1-2-2V6a2,2,0,0,1,2-2h15.153a2,2,0,0,1,1.4137.58528L38.4435,15.484a2,2,0,0,1,.58629,1.41472V42A2,2,0,0,1,37.02979,44Z"/><path class="cls-2" d="M38.28291,15.13009a2.55,2.55,0,0,1,.74688,1.80312V16.877a1,1,0,0,0-1-1h-8.877a2,2,0,0,1-2-2V5a1,1,0,0,0-1-1h-.05625a2.55,2.55,0,0,1,1.80312.74688Z"/><rect class="cls-3" x="16.15338" y="26.46809" width="5.33636" height="4.88747" rx="1" ry="1"/><path class="cls-3" d="M22.19007,33.1628l-2.4023-1.80723V26.46809l2.4023-1.80723a.90323.90323,0,0,1,1.44623.72179V32.441A.90323.90323,0,0,1,22.19007,33.1628Z"/><path class="cls-3" d="M27.05927,33.63346a1.00131,1.00131,0,0,1-.92187-1.38623,8.64242,8.64242,0,0,0-.01416-6.66894.99994.99994,0,1,1,1.8418-.7793,10.63876,10.63876,0,0,1,.01709,8.21973A1.00049,1.00049,0,0,1,27.05927,33.63346Z"/><path class="cls-3" d="M29.99677,36.63639a1,1,0,0,1-.85693-1.51367,12.09249,12.09249,0,0,0,.09522-12.22461,1,1,0,1,1,1.73144-1.001,14.09185,14.09185,0,0,1-.11084,14.25293A.99961.99961,0,0,1,29.99677,36.63639Z"/></g></svg>