<?xml version="1.0" encoding="utf-8"?>
<!-- Generator: Adobe Illustrator 23.0.0, SVG Export Plug-In . SVG Version: 6.00 Build 0)  -->
<svg version="1.1" xmlns="http://www.w3.org/2000/svg" xmlns:xlink="http://www.w3.org/1999/xlink" x="0px" y="0px"
	 viewBox="0 0 48 48" style="enable-background:new 0 0 48 48;" xml:space="preserve">
<style type="text/css">
	.st0{fill:#1171BB;}
	.st1{fill:#4DB1FF;}
	.st2{fill:#FFFFFF;}
	.st3{fill:#004A81;}
	.st4{fill:none;stroke:#1171BB;stroke-width:4;stroke-linecap:round;stroke-linejoin:round;stroke-miterlimit:10;}
	.st5{fill:none;stroke:#FFFFFF;stroke-width:2;stroke-linecap:round;stroke-linejoin:round;stroke-miterlimit:10;}
	.st6{fill:none;stroke:#004A81;stroke-width:2;stroke-linecap:round;stroke-linejoin:round;stroke-miterlimit:10;}
	.st7{fill:none;stroke:#4DB1FF;stroke-width:2;stroke-linecap:round;stroke-linejoin:round;stroke-miterlimit:10;}
	.st8{fill:#FFFFFF;stroke:#1171BB;stroke-width:2;stroke-linecap:round;stroke-linejoin:round;stroke-miterlimit:10;}
	.st9{display:none;}
	.st10{display:inline;}
	.st11{fill:none;stroke:#FFFFFF;stroke-width:2.25;stroke-linecap:round;stroke-linejoin:round;stroke-miterlimit:10;}
	.st12{fill:none;stroke:#1171BB;stroke-width:2;stroke-linecap:round;stroke-linejoin:round;stroke-miterlimit:10;}
	.st13{fill:none;stroke:#4DB1FF;stroke-width:4;stroke-linecap:round;stroke-linejoin:round;stroke-miterlimit:10;}
	.st14{fill:none;stroke:#004A81;stroke-width:4;stroke-linecap:round;stroke-linejoin:round;stroke-miterlimit:10;}
	.st15{opacity:0.2;fill:#4DB1FF;}
	.st16{opacity:0.5;fill:#4DB1FF;}
	.st17{fill:#C5CDD6;}
	.st18{display:none;fill:#1171BB;}
	.st19{fill:none;stroke:#004A81;stroke-width:4;stroke-miterlimit:10;}
	.st20{clip-path:url(#SVGID_2_);fill:none;stroke:#4DB1FF;stroke-width:4;stroke-linecap:round;stroke-miterlimit:10;}
	.st21{clip-path:url(#SVGID_4_);fill:none;stroke:#4DB1FF;stroke-width:4;stroke-linecap:round;stroke-miterlimit:10;}
	.st22{clip-path:url(#SVGID_6_);fill:none;stroke:#4DB1FF;stroke-width:2;stroke-linecap:round;stroke-miterlimit:10;}
	.st23{clip-path:url(#SVGID_8_);fill:none;stroke:#4DB1FF;stroke-width:2;stroke-linecap:round;stroke-miterlimit:10;}
	.st24{clip-path:url(#SVGID_10_);fill:none;stroke:#4DB1FF;stroke-width:2;stroke-linecap:round;stroke-miterlimit:10;}
	.st25{clip-path:url(#SVGID_12_);fill:none;stroke:#4DB1FF;stroke-width:2;stroke-linecap:round;stroke-miterlimit:10;}
	.st26{clip-path:url(#SVGID_14_);fill:none;stroke:#4DB1FF;stroke-width:4;stroke-linecap:round;stroke-miterlimit:10;}
	.st27{fill:none;stroke:#FFFFFF;stroke-miterlimit:10;}
	.st28{clip-path:url(#SVGID_16_);fill:none;stroke:#4DB1FF;stroke-width:4;stroke-linecap:round;stroke-miterlimit:10;}
	.st29{clip-path:url(#SVGID_18_);fill:none;stroke:#4DB1FF;stroke-width:4;stroke-linecap:round;stroke-miterlimit:10;}
	.st30{clip-path:url(#SVGID_20_);fill:none;stroke:#4DB1FF;stroke-width:4;stroke-linecap:round;stroke-miterlimit:10;}
	.st31{clip-path:url(#SVGID_22_);fill:none;stroke:#4DB1FF;stroke-width:2;stroke-linecap:round;stroke-miterlimit:10;}
	.st32{clip-path:url(#SVGID_24_);fill:none;stroke:#4DB1FF;stroke-width:2;stroke-linecap:round;stroke-miterlimit:10;}
	.st33{clip-path:url(#SVGID_26_);fill:none;stroke:#4DB1FF;stroke-width:2;stroke-linecap:round;stroke-miterlimit:10;}
	.st34{clip-path:url(#SVGID_28_);fill:none;stroke:#4DB1FF;stroke-width:2;stroke-linecap:round;stroke-miterlimit:10;}
	.st35{clip-path:url(#SVGID_30_);fill:none;stroke:#4DB1FF;stroke-width:4;stroke-linecap:round;stroke-miterlimit:10;}
	.st36{clip-path:url(#SVGID_32_);fill:none;stroke:#4DB1FF;stroke-width:4;stroke-linecap:round;stroke-miterlimit:10;}
</style>
<g id="_x30_3_Final_-_Expanded">
	<g id="Talent">
		<g>
			<path class="st0" d="M24.88,31.03h-1.75c-3.86,0-6.98-3.13-6.98-6.98V11.86c0-3.86,3.13-6.98,6.98-6.98h1.75
				c3.86,0,6.98,3.13,6.98,6.98v12.19C31.86,27.91,28.73,31.03,24.88,31.03z"/>
			<g>
				<path class="st3" d="M18.71,15.13h-2.57v-2.69h2.58c0.66,0,1.19,0.53,1.19,1.19v0.3C19.91,14.59,19.37,15.13,18.71,15.13z"/>
				<path class="st3" d="M18.71,23.47h-2.57v-2.69h2.58c0.66,0,1.19,0.53,1.19,1.19v0.3C19.91,22.94,19.37,23.47,18.71,23.47z"/>
				<path class="st3" d="M18.71,19.3h-2.57v-2.69h2.58c0.66,0,1.19,0.53,1.19,1.19v0.3C19.91,18.76,19.37,19.3,18.71,19.3z"/>
			</g>
			<g>
				<path class="st3" d="M29.29,20.78h2.57v2.69h-2.58c-0.66,0-1.19-0.53-1.19-1.19v-0.3C28.09,21.32,28.63,20.78,29.29,20.78z"/>
				<path class="st3" d="M29.29,12.44h2.57v2.69h-2.58c-0.66,0-1.19-0.53-1.19-1.19v-0.3C28.09,12.98,28.63,12.44,29.29,12.44z"/>
				<path class="st3" d="M29.29,16.61h2.57v2.69h-2.58c-0.66,0-1.19-0.53-1.19-1.19v-0.3C28.09,17.15,28.63,16.61,29.29,16.61z"/>
			</g>
		</g>
		<g>
			<path class="st1" d="M24,37.97c-7.9,0-14.33-6.43-14.33-14.33v-1.48c0-1.1,0.9-2,2-2s2,0.9,2,2v1.48
				c0,5.7,4.63,10.33,10.33,10.33s10.33-4.63,10.33-10.33v-1.48c0-1.1,0.9-2,2-2s2,0.9,2,2v1.48C38.33,31.54,31.9,37.97,24,37.97z"
				/>
		</g>
		<g>
			<path class="st1" d="M24,45.12c-1.1,0-2-0.9-2-2v-7.15c0-1.1,0.9-2,2-2s2,0.9,2,2v7.15C26,44.22,25.1,45.12,24,45.12z"/>
		</g>
		<g>
			<path class="st1" d="M30.56,45.12H17.44c-1.1,0-2-0.9-2-2s0.9-2,2-2h13.11c1.1,0,2,0.9,2,2S31.66,45.12,30.56,45.12z"/>
		</g>
	</g>
</g>
<g id="_x30_2_Final_-_Not_Expanded">
</g>
<g id="_x30_1_Working">
</g>
</svg>
