<svg id="_03_Final_-_Expanded" data-name="03 Final - Expanded" xmlns="http://www.w3.org/2000/svg" viewBox="0 0 48 48"><defs><style>.cls-1{fill:#004a81;}.cls-2{fill:#1171bb;}.cls-3{fill:#4db1ff;}.cls-4{fill:#fff;}</style></defs><title>Icon_Decorative</title><g id="stopwatch"><rect class="cls-1" x="20.28828" y="7.52582" width="6.8386" height="4.2702"/><path class="cls-1" d="M40.3162,17.43453a1.00092,1.00092,0,0,1-.79878-.396L37.77517,14.74a1.00137,1.00137,0,0,1,1.5956-1.21039L41.113,15.82817a1.00141,1.00141,0,0,1-.79683,1.60636Z"/><path class="cls-1" d="M28.28369,24.48372a1.00117,1.00117,0,0,1-.59151-1.80971l10.76053-7.86166a1.00124,1.00124,0,1,1,1.18106,1.61711L28.87324,24.29112A.99617.99617,0,0,1,28.28369,24.48372Z"/><circle class="cls-2" cx="23.70704" cy="26.97654" r="17.02346"/><circle class="cls-3" cx="23.70704" cy="26.97654" r="12.76837"/><path class="cls-4" d="M23.707,26.97654l.00039-12.76837a12.75012,12.75012,0,0,1,10.2787,5.19257Z"/><path class="cls-1" d="M20.951,29.87083a1.00117,1.00117,0,0,1-.5915-1.80971l10.20128-7.453a1.00124,1.00124,0,1,1,1.18106,1.61711l-10.20129,7.453A.99617.99617,0,0,1,20.951,29.87083Z"/><circle class="cls-1" cx="23.64806" cy="26.89854" r="2.77172"/><path class="cls-2" d="M27.64379,8.00465H19.65552a2.00233,2.00233,0,1,1,0-4.00465h7.98827a2.00233,2.00233,0,0,1,0,4.00465Z"/></g></svg>