<svg id="_03_Final_-_Expanded" data-name="03 Final - Expanded" xmlns="http://www.w3.org/2000/svg" viewBox="0 0 48 48"><defs><style>.cls-1{fill:#4db0ff;}.cls-2{fill:#004a80;}.cls-3{fill:#1171ba;}.cls-4{fill:#fff;}</style></defs><path class="cls-1" d="M9.2994,16.33388H10.8273A1.96912,1.96912,0,0,1,12.79642,18.303V39.09127a1.96912,1.96912,0,0,1-1.96912,1.96912H9.25123a1.96912,1.96912,0,0,1-1.96912-1.96912V18.35117A2.01728,2.01728,0,0,1,9.2994,16.33388Z"/><path class="cls-2" d="M34.90341,41.08709l-25.64864,0a1.891,1.891,0,0,1-1.891-1.891l0-20.16824A2.66724,2.66724,0,0,1,10.031,16.36063h0l24.87242-.00005a1.891,1.891,0,0,1,1.891,1.891l0,20.94447A1.891,1.891,0,0,1,34.90341,41.08709Z"/><path class="cls-1" d="M16.34161,41.08711H7.28211V18.38736c0-.96121,1.22247-2.02675,2.74884-2.02675h6.31066Z"/><rect class="cls-2" x="8.85124" y="16.36061" width="22.727" height="2.91289" rx="1.45644"/><rect class="cls-3" x="13.04293" y="5.28781" width="17.79791" height="30.1554" rx="2.1411" transform="translate(5.85418 -4.88099) rotate(14.62754)"/><path class="cls-2" d="M19.89743,8.3978,29.5653,10.921,22.97305,36.17929,13.30518,33.656,19.89743,8.3978m-.08972-2.05323a1.90272,1.90272,0,0,0-1.83892,1.42206l-6.6547,25.49756A1.90182,1.90182,0,0,0,12.674,35.58468l9.90717,2.5857a1.89965,1.89965,0,0,0,2.3205-1.35993L31.55639,11.3129a1.90186,1.90186,0,0,0-1.35992-2.3205L20.28929,6.40671a1.90343,1.90343,0,0,0-.48158-.06214Z"/><circle class="cls-2" cx="29.02388" cy="11.23834" r="2.46926"/><circle class="cls-2" cx="20.21473" cy="8.93921" r="2.46926"/><path class="cls-1" d="M9.2994,19.2735H37.225a1.96912,1.96912,0,0,1,1.96912,1.96912V42.03088A1.96912,1.96912,0,0,1,37.225,44H9.25123a1.96912,1.96912,0,0,1-1.96912-1.96912V21.29078A2.01728,2.01728,0,0,1,9.2994,19.2735Z"/><path class="cls-3" d="M31.9908,27.46948h6.72775a1.99933,1.99933,0,0,1,1.99933,1.99933v4.33587A1.99933,1.99933,0,0,1,38.71855,35.804H31.9908a4.16726,4.16726,0,0,1-4.16726-4.16726v0a4.16726,4.16726,0,0,1,4.16726-4.16726Z"/><circle class="cls-4" cx="31.84221" cy="31.63675" r="1.91788"/></svg>